<?xml version="1.0" standalone="no"?>
<!DOCTYPE svg PUBLIC "-//W3C//DTD SVG 20010904//EN"
 "http://www.w3.org/TR/2001/REC-SVG-20010904/DTD/svg10.dtd">
<svg version="1.0" xmlns="http://www.w3.org/2000/svg"
 width="512.000000pt" height="512.000000pt" viewBox="0 0 512.000000 512.000000"
 preserveAspectRatio="xMidYMid meet">

<g transform="translate(0.000000,512.000000) scale(0.100000,-0.100000)"
fill="#000000" stroke="none">
<path d="M0 2560 l0 -2560 2560 0 2560 0 0 2560 0 2560 -2560 0 -2560 0 0
-2560z m4741 2469 c19 -7 45 -24 57 -38 21 -23 23 -34 20 -88 -4 -70 -20 -91
-87 -113 -36 -12 -44 -11 -86 9 l-46 22 -52 -26 c-49 -24 -77 -40 -101 -58
-61 -43 -66 -50 -66 -83 0 -34 25 -74 46 -74 6 0 17 -6 23 -14 7 -8 26 -22 44
-31 18 -9 46 -24 62 -35 33 -20 65 -26 65 -10 0 6 30 10 70 10 60 0 75 -3 96
-23 35 -33 45 -121 18 -166 -10 -17 -24 -31 -31 -31 -7 0 -13 -4 -13 -10 0
-17 -98 -11 -128 7 -48 31 -61 55 -62 108 0 44 -4 52 -30 70 -16 11 -30 23
-30 28 0 4 -9 7 -20 7 -11 0 -20 4 -20 10 0 5 -11 12 -25 16 -14 3 -25 9 -25
13 0 3 -14 12 -32 20 -28 13 -35 12 -72 -7 -48 -26 -82 -28 -123 -7 -53 27
-66 50 -67 118 -1 72 13 94 78 121 32 13 45 14 77 4 22 -6 44 -17 50 -25 13
-15 59 -18 59 -4 0 5 11 12 25 15 14 4 25 11 25 16 0 6 6 10 13 10 22 0 67 24
67 37 0 6 10 13 23 15 19 3 22 10 25 62 4 68 33 108 92 124 47 13 43 13 81 1z
m-2786 -778 c39 -7 78 -17 87 -22 10 -5 27 -9 38 -9 58 0 360 -145 426 -205 7
-5 26 -21 43 -35 39 -31 39 -55 0 -100 -16 -19 -50 -57 -74 -85 -24 -27 -53
-61 -65 -75 -73 -86 -125 -140 -134 -140 -6 0 -24 12 -39 26 -31 29 -228 134
-252 134 -8 0 -15 3 -15 8 0 10 -77 30 -165 44 -89 14 -235 14 -300 0 -65 -14
-125 -35 -125 -44 0 -5 -6 -8 -12 -8 -15 0 -88 -63 -88 -75 0 -5 -7 -17 -16
-26 -25 -27 -23 -165 2 -210 22 -39 84 -99 102 -99 6 0 12 -3 12 -8 0 -11 126
-72 149 -72 6 0 11 -4 11 -10 0 -5 10 -10 23 -10 12 0 31 -7 41 -15 11 -8 29
-15 41 -15 12 0 25 -3 28 -7 11 -10 109 -43 129 -43 10 0 18 -4 18 -9 0 -5 15
-13 33 -16 17 -4 37 -11 42 -15 6 -4 21 -10 35 -13 51 -11 171 -58 263 -103
27 -13 53 -24 58 -24 12 0 113 -62 117 -72 2 -4 8 -8 14 -8 25 0 218 -174 218
-197 0 -6 6 -18 13 -25 17 -17 60 -111 80 -174 11 -34 17 -86 17 -149 l0 -97
-37 -41 c-66 -72 -231 -237 -237 -237 -4 0 -21 -15 -39 -33 -17 -17 -49 -43
-69 -57 -21 -14 -38 -28 -38 -32 0 -5 -5 -8 -11 -8 -11 0 -82 -50 -87 -62 -2
-5 -9 -8 -15 -8 -7 0 -26 -14 -44 -30 -18 -17 -36 -30 -42 -30 -5 0 -11 -3
-13 -7 -4 -10 -82 -62 -130 -88 -21 -11 -38 -23 -38 -27 0 -5 -9 -8 -19 -8
-11 0 -23 -4 -26 -10 -3 -5 -23 -17 -43 -26 -77 -34 -107 -49 -110 -56 -2 -5
-10 -8 -18 -8 -8 0 -17 -7 -20 -15 -5 -11 -23 -15 -73 -15 -37 0 -72 5 -77 10
-6 6 -41 13 -78 17 -36 3 -69 10 -72 14 -3 5 -22 9 -42 9 -20 0 -46 7 -56 15
-11 8 -30 15 -43 15 -13 0 -31 4 -41 9 -47 26 -87 41 -109 41 -12 0 -23 4 -23
8 0 5 -21 18 -47 31 -56 26 -77 38 -120 69 -17 12 -34 22 -37 22 -4 0 -12 5
-19 10 -23 20 -58 49 -100 82 -48 39 -107 99 -107 111 0 5 38 47 85 94 47 47
85 90 85 94 0 5 4 9 9 9 9 0 71 57 71 65 0 3 19 22 42 44 l42 41 35 -27 c20
-15 38 -31 39 -35 2 -4 8 -8 12 -8 5 0 23 -13 40 -29 18 -16 44 -35 58 -42 15
-8 33 -20 40 -26 7 -7 19 -13 27 -13 7 0 15 -3 17 -7 4 -11 67 -43 84 -43 8 0
14 -4 14 -10 0 -5 8 -10 18 -10 10 0 27 -7 38 -15 10 -8 30 -15 44 -15 15 0
31 -5 38 -12 13 -13 73 -25 187 -38 87 -10 272 -2 281 11 3 5 18 9 33 9 16 0
34 7 41 15 7 8 17 15 22 15 10 0 68 54 68 64 0 3 11 17 25 32 14 15 25 34 25
42 0 8 8 36 17 62 16 46 16 51 -3 109 -10 34 -22 61 -26 61 -5 0 -8 5 -8 11 0
27 -130 129 -165 129 -8 0 -15 4 -15 9 0 5 -10 12 -22 16 -28 8 -64 23 -100
41 -14 8 -35 14 -46 14 -12 0 -24 5 -27 10 -3 6 -14 10 -23 10 -9 0 -30 7 -46
15 -15 8 -38 15 -50 15 -11 0 -30 7 -40 15 -11 8 -30 15 -42 15 -13 0 -26 5
-29 10 -3 6 -15 10 -25 10 -17 0 -66 18 -112 41 -10 5 -23 9 -29 9 -12 0 -68
23 -111 46 -14 8 -33 14 -42 14 -9 0 -16 5 -16 10 0 6 -8 10 -19 10 -10 0 -24
7 -31 15 -7 8 -19 15 -27 15 -23 0 -150 86 -200 135 -25 25 -49 45 -54 45 -5
0 -9 5 -9 10 0 6 -11 23 -25 38 -14 15 -25 32 -25 39 0 7 -4 13 -10 13 -5 0
-19 21 -30 48 -12 26 -25 56 -30 67 -34 78 -50 301 -30 405 24 120 30 138 79
239 25 53 132 171 199 221 19 14 39 30 45 36 7 5 33 19 59 30 27 10 48 22 48
27 0 4 10 7 23 7 13 0 27 4 32 9 10 10 44 19 164 46 35 8 66 17 70 20 10 11
466 -1 536 -14z m1930 4 c33 -8 77 -15 97 -15 20 0 40 -4 43 -10 3 -5 16 -10
28 -10 12 0 35 -7 51 -15 15 -8 38 -15 51 -15 12 0 28 -7 35 -15 7 -8 19 -15
26 -15 8 0 22 -4 32 -9 9 -5 46 -23 82 -40 74 -35 93 -47 128 -78 14 -13 29
-23 33 -23 5 0 9 -7 9 -15 0 -8 6 -15 13 -15 6 -1 27 -13 44 -29 l33 -27 -27
-33 c-28 -34 -58 -66 -144 -158 -27 -28 -49 -53 -49 -56 0 -2 -20 -25 -44 -50
-41 -43 -69 -58 -78 -39 -4 10 -97 72 -107 72 -5 0 -11 4 -13 8 -4 11 -131 72
-149 72 -8 0 -19 4 -24 8 -38 33 -164 55 -310 55 -122 -1 -196 -12 -255 -41
-51 -25 -110 -74 -110 -91 0 -6 -4 -11 -9 -11 -36 0 -55 -155 -27 -221 22 -53
143 -159 181 -159 8 0 15 -4 15 -9 0 -5 10 -12 23 -16 12 -3 31 -10 42 -14 11
-5 40 -16 65 -26 25 -9 52 -21 60 -25 9 -4 30 -11 48 -14 17 -4 34 -12 37 -17
4 -5 18 -9 33 -9 15 0 36 -7 46 -15 11 -8 30 -15 42 -15 13 0 26 -4 29 -10 3
-5 19 -10 34 -10 16 0 34 -7 41 -15 7 -8 25 -15 41 -15 16 0 29 -4 29 -10 0
-5 16 -12 35 -16 19 -3 38 -10 41 -15 3 -5 16 -9 30 -9 13 0 24 -4 24 -9 0 -5
10 -12 23 -16 25 -7 65 -24 87 -36 8 -4 34 -18 58 -30 23 -13 42 -26 42 -31 0
-4 7 -8 15 -8 9 0 18 -7 21 -15 4 -8 12 -15 20 -15 8 0 14 -4 14 -10 0 -5 4
-10 9 -10 6 0 45 -35 88 -79 79 -79 143 -182 143 -228 0 -13 4 -23 9 -23 4 0
11 -31 14 -69 3 -39 11 -79 16 -90 17 -31 14 -150 -4 -167 -11 -11 -15 -37
-15 -90 0 -41 -4 -74 -9 -74 -5 0 -11 -18 -15 -40 -3 -22 -11 -40 -16 -40 -6
0 -10 -13 -10 -30 0 -16 -4 -30 -10 -30 -5 0 -10 -9 -10 -20 0 -11 -7 -23 -15
-26 -8 -4 -15 -12 -15 -20 0 -12 -84 -104 -95 -104 -3 0 -5 7 -5 16 0 14 -2
15 -17 3 -9 -8 -18 -13 -20 -11 -10 7 -32 0 -37 -14 -4 -10 -2 -13 7 -8 6 4 4
-2 -5 -13 -10 -11 -18 -25 -18 -31 0 -6 8 -9 18 -6 9 3 7 -1 -6 -8 -12 -8 -19
-17 -16 -21 4 -4 -2 -7 -14 -7 -12 0 -22 -6 -23 -12 0 -12 -105 -68 -126 -68
-6 0 -24 -7 -39 -15 -31 -16 -99 -21 -90 -6 3 5 -5 11 -19 13 -14 3 -25 0 -26
-6 0 -7 -3 -6 -6 2 -7 17 -30 15 -37 -5 -6 -14 -8 -14 -21 3 -13 18 -13 17
-11 -9 3 -20 0 -25 -9 -17 -8 7 -11 3 -11 -13 l1 -22 -235 -3 c-193 -2 -240 0
-266 13 -18 8 -52 15 -76 15 -24 0 -49 5 -55 11 -6 6 -23 9 -39 7 l-29 -3 -3
-545 -2 -545 -290 3 -290 3 0 612 c0 338 4 618 9 626 6 9 16 11 27 7 10 -4 15
-4 12 0 -8 8 16 34 31 34 5 0 14 6 18 13 4 7 25 21 46 32 20 11 37 23 37 27 0
5 8 8 19 8 10 0 24 7 31 15 9 10 17 12 30 5 14 -7 17 -6 16 8 -1 13 6 17 27
15 24 -2 26 0 17 18 -9 16 -7 19 10 19 11 0 20 4 20 9 0 9 68 57 113 80 16 8
31 20 34 28 3 7 12 13 20 13 7 0 24 11 37 25 29 31 46 31 96 0 22 -14 51 -25
65 -25 15 0 24 -4 21 -9 -7 -11 18 -21 54 -21 16 0 32 -4 35 -10 3 -5 27 -10
53 -10 26 -1 65 -7 87 -15 52 -19 129 -19 191 0 27 8 63 15 81 15 17 0 35 5
38 10 3 6 20 10 36 10 17 0 32 6 35 15 4 8 11 15 16 15 12 0 68 56 68 68 0 5
7 12 15 16 8 3 15 14 15 25 0 11 6 21 13 24 16 5 14 210 -2 215 -6 2 -11 9
-11 15 0 14 -72 97 -83 97 -7 0 -20 9 -52 38 -7 6 -22 12 -33 12 -11 0 -22 7
-26 15 -3 8 -15 15 -26 15 -20 0 -26 2 -88 33 -19 9 -42 17 -52 17 -10 0 -20
3 -22 8 -4 9 -100 42 -124 42 -11 0 -28 7 -38 15 -11 8 -30 15 -42 15 -13 0
-26 5 -29 10 -3 6 -16 10 -29 10 -12 0 -31 7 -42 15 -10 8 -29 15 -41 15 -12
0 -24 4 -27 9 -7 10 -97 41 -120 41 -9 0 -16 4 -16 8 0 7 -18 16 -90 46 -8 3
-22 10 -30 14 -8 5 -24 13 -35 19 -41 20 -89 49 -113 68 -52 42 -172 163 -172
174 0 6 -4 11 -9 11 -5 0 -12 11 -15 25 -4 14 -11 25 -16 25 -6 0 -10 9 -10
19 0 11 -4 22 -9 25 -15 10 -38 97 -51 194 -11 75 -11 115 0 213 7 66 17 122
22 125 4 3 8 15 8 28 0 12 7 31 15 42 8 10 15 27 15 36 0 9 4 18 8 20 4 2 23
28 41 58 40 66 151 178 204 205 20 11 37 23 37 27 0 5 6 8 14 8 17 0 80 32 84
43 2 4 11 7 19 7 17 0 108 28 135 41 10 5 30 9 45 9 16 1 53 7 83 15 77 19
385 19 465 0z m565 -2585 c0 -5 -4 -10 -10 -10 -5 0 -10 5 -10 10 0 6 5 10 10
10 6 0 10 -4 10 -10z m-365 -182 c6 -4 -7 -8 -27 -8 -21 0 -38 4 -38 9 0 11
42 20 50 12 3 -3 10 -9 15 -13z m-1740 -554 l0 -524 -286 0 -286 0 -5 72 c-3
40 -4 208 -3 373 l3 300 28 14 c16 8 31 18 32 23 2 4 13 8 25 8 12 0 30 7 40
14 10 8 27 12 38 9 13 -4 19 -1 17 8 -2 7 6 15 17 17 11 2 25 11 31 20 6 8 16
12 23 8 6 -4 14 0 17 8 3 9 13 16 20 16 8 0 17 6 20 14 3 8 13 16 22 19 9 3
40 20 67 37 28 16 58 33 68 36 9 4 17 10 17 15 0 5 9 9 20 9 10 0 23 6 27 14
9 14 35 26 43 19 3 -3 5 -241 5 -529z m1775 225 c0 -5 6 -7 13 -3 6 4 9 4 5
-1 -4 -4 -1 -20 7 -35 11 -21 14 -62 13 -162 -2 -124 -10 -164 -31 -151 -5 3
-4 -4 2 -15 14 -26 14 -72 1 -72 -5 0 -10 5 -10 10 0 14 -37 12 -42 -2 -8 -21
3 -38 24 -38 11 0 18 -5 15 -12 -2 -7 -10 -12 -16 -10 -6 1 -11 -10 -11 -24 0
-23 -2 -25 -15 -14 -13 11 -14 10 -9 -6 10 -28 25 -44 35 -39 4 3 6 12 2 20
-6 18 4 19 21 2 15 -14 24 -54 33 -140 l5 -58 -191 1 c-110 1 -191 5 -191 11
0 5 -10 9 -22 9 -19 0 -20 -2 -8 -10 10 -7 -16 -10 -84 -10 -89 0 -98 2 -91
18 8 21 7 454 -1 488 -6 22 -3 24 25 24 17 0 31 5 31 10 0 6 8 10 18 10 10 0
27 7 38 15 26 20 58 20 50 0 -4 -10 3 -19 18 -25 18 -7 23 -14 19 -29 -6 -25
9 -27 41 -5 23 14 25 14 31 -5 3 -12 12 -21 20 -21 7 0 16 -7 19 -16 3 -8 10
-12 16 -9 6 4 8 11 4 16 -3 5 -2 9 3 8 33 -6 48 26 18 37 -24 10 -17 22 15 29
46 10 34 54 -12 47 -10 -2 -18 2 -18 7 0 6 6 11 14 11 17 0 30 30 13 31 -7 1
-24 1 -39 1 -16 1 -28 5 -28 10 0 4 11 6 25 2 18 -4 25 -2 25 8 0 8 19 24 43
37 46 24 62 32 92 49 26 14 65 15 65 1z m-2661 -454 c-1 -267 -2 -295 -17
-296 -59 -1 -576 1 -578 3 -1 2 1 37 6 78 4 41 7 89 5 105 -4 30 -7 129 -6
153 1 6 10 12 20 12 11 0 22 4 25 9 3 5 22 12 41 15 19 4 35 11 35 16 0 6 7
10 16 10 23 0 113 31 120 41 3 5 16 9 28 9 13 0 29 7 36 15 7 8 21 15 31 15
11 0 19 5 19 10 0 6 9 10 20 10 11 0 23 7 26 15 4 8 14 15 24 15 18 0 80 29
90 41 4 6 30 14 53 18 4 0 7 -132 6 -294z m2441 236 c0 -5 -11 -11 -24 -13
-17 -4 -23 -1 -19 9 6 14 43 18 43 4z"/>
<path d="M3990 1548 c0 -4 4 -8 9 -8 6 0 12 4 15 8 3 5 -1 9 -9 9 -8 0 -15 -4
-15 -9z"/>
<path d="M3923 1483 c9 -2 14 -9 11 -15 -4 -7 -2 -8 5 -4 15 10 4 26 -17 25
-15 -1 -15 -2 1 -6z"/>
<path d="M4000 970 c0 -5 -5 -9 -12 -7 -6 1 -14 -7 -16 -17 -3 -13 0 -17 11
-13 11 4 13 -3 11 -31 -2 -23 3 -40 12 -47 11 -8 13 -17 6 -35 -15 -43 -4 -62
31 -58 35 3 40 21 8 26 -22 4 -26 42 -4 42 22 0 15 20 -16 49 -32 30 -33 71
-4 71 13 0 13 3 3 15 -14 17 -30 20 -30 5z"/>
<path d="M4040 920 c0 -11 5 -20 10 -20 6 0 10 9 10 20 0 11 -4 20 -10 20 -5
0 -10 -9 -10 -20z"/>
<path d="M3710 836 c0 -9 5 -16 10 -16 6 0 10 4 10 9 0 6 -4 13 -10 16 -5 3
-10 -1 -10 -9z"/>
<path d="M3907 804 c7 -18 54 -16 61 4 2 8 -8 12 -32 12 -28 0 -34 -3 -29 -16z"/>
<path d="M3606 793 c-11 -11 -6 -23 9 -23 8 0 15 4 15 9 0 13 -16 22 -24 14z"/>
<path d="M3656 696 c-16 -13 -27 -29 -25 -35 6 -15 69 25 69 44 0 20 -10 18
-44 -9z"/>
<path d="M3818 590 c12 -5 22 -15 22 -21 0 -7 3 -9 6 -6 10 10 -16 37 -35 36
-11 0 -9 -3 7 -9z"/>
<path d="M3606 566 c3 -8 12 -12 20 -9 21 8 17 23 -6 23 -13 0 -18 -5 -14 -14z"/>
<path d="M3740 559 c0 -11 4 -18 10 -14 5 3 7 12 3 20 -7 21 -13 19 -13 -6z"/>
<path d="M3910 576 c0 -2 7 -9 15 -16 13 -11 14 -10 9 4 -5 14 -24 23 -24 12z"/>
<path d="M3933 513 c-7 -3 -13 -12 -13 -21 0 -15 2 -15 17 1 18 18 16 27 -4
20z"/>
<path d="M3761 479 c0 -9 -11 -24 -23 -33 l-23 -16 25 9 c14 4 34 5 45 1 12
-4 23 -3 28 4 5 7 12 5 21 -7 9 -12 23 -17 38 -14 23 4 23 4 -2 7 l-25 2 25 9
25 8 -25 -1 c-40 -1 -43 1 -31 16 9 11 7 15 -10 19 -11 3 -18 3 -15 0 6 -7
-19 -33 -33 -33 -5 0 -12 10 -14 23 -2 12 -5 15 -6 6z"/>
<path d="M3938 443 c7 -3 16 -2 19 1 4 3 -2 6 -13 5 -11 0 -14 -3 -6 -6z"/>
</g>
</svg>
